# xmcd
#
# Track frame offsets:
#	150
#	9600
#	20700
#	31800
#	43650
#	53325
#	64050
#	76275
#	89775
#	100050
#	111450
#	121200
#	133725
#	143475
#	154875
#	165225
#
# Disc length: 2362 seconds
#
# Revision: 0
# Processed by: cddbd v1.5.1PL0 Copyright (c) Steve Scherf et al.
# Submitted via: dBpowerAMP V4.0
#
DISCID=cb093810
DTITLE=Pérez Prado - Lo mejor de Pérez Prado
DYEAR=1900
DGENRE=Bossa-Nova
TTITLE0=Mambo nº 8
TTITLE1=Mambo Jambo (ue rico el mambo)
TTITLE2=Silbando mambo
TTITLE3=Patricia
TTITLE4=Cerezo Rosa
TTITLE5=Mambo nº 5
TTITLE6=Siempre en mi corazón
TTITLE7=Aquellos ojos verdes
TTITLE8=Caballo negro
TTITLE9=En un pueblecito español
TTITLE10=Maria bonita
TTITLE11=Al compas del mambo
TTITLE12=Sabor a mi
TTITLE13=Perfidia
TTITLE14=Quizás, quizás, quizás
TTITLE15=Solamente una vez
EXTD=
EXTT0=
EXTT1=
EXTT2=
EXTT3=
EXTT4=
EXTT5=
EXTT6=
EXTT7=
EXTT8=
EXTT9=
EXTT10=
EXTT11=
EXTT12=
EXTT13=
EXTT14=
EXTT15=
PLAYORDER=
